<svg width="24" height="24" viewBox="0 0 24 24" fill="none" xmlns="http://www.w3.org/2000/svg">
<circle cx="12" cy="12" r="12" fill="#FFB400"/>
<g clip-path="url(#clip0_202_5513)">
<path d="M16.6596 11.7502C16.6118 10.832 16.2924 9.94861 15.742 9.21209C15.5743 9.3927 15.395 9.56223 15.2053 9.71959C14.6226 10.2037 13.9713 10.5988 13.2728 10.8921C13.3702 11.0963 13.4594 11.294 13.5382 11.4807V11.4824C13.5604 11.5346 13.5818 11.5871 13.6023 11.6399C14.4855 11.5408 15.4165 11.5769 16.3189 11.6988C16.4391 11.7152 16.5523 11.7327 16.6596 11.7502ZM11.185 7.40434C11.7535 8.20535 12.2777 9.03688 12.7553 9.89517C13.4688 9.614 14.0585 9.25934 14.5333 8.86442C14.6982 8.72858 14.8533 8.58142 14.9977 8.424C14.1583 7.71801 13.0962 7.33161 11.9993 7.33317C11.7264 7.33298 11.4539 7.3566 11.185 7.40375V7.40434ZM7.48027 10.8314C7.87765 10.8214 8.27456 10.7975 8.67027 10.7597C9.62672 10.6741 10.575 10.5138 11.5064 10.2802C11.0196 9.43446 10.4941 8.61167 9.93143 7.81442C9.33043 8.11215 8.8005 8.53566 8.37758 9.05621C7.95465 9.57677 7.64863 10.1822 7.48027 10.8314ZM8.37277 14.9369C8.5991 14.6062 8.8966 14.234 9.29152 13.8292C10.1397 12.96 11.1407 12.2833 12.2992 11.91L12.3353 11.8995C12.2391 11.6872 12.1487 11.4976 12.0577 11.3191C10.9867 11.6312 9.85852 11.826 8.73443 11.9269C8.1861 11.9765 7.69435 11.9981 7.33268 12.0016C7.33165 13.0706 7.69919 14.1073 8.37335 14.9369H8.37277ZM13.7523 16.3253C13.5273 15.1908 13.2089 14.0769 12.8003 12.995C11.6324 13.4191 10.702 14.0392 9.98277 14.7788C9.6925 15.0719 9.43491 15.3956 9.21452 15.7443C10.0188 16.3444 10.9958 16.6679 11.9993 16.6665C12.6001 16.6674 13.1954 16.5519 13.7523 16.3264V16.3253ZM14.8448 15.6982C15.7556 14.998 16.376 13.9865 16.5873 12.8573C16.3889 12.8078 16.1375 12.7582 15.861 12.7197C15.2463 12.6311 14.6225 12.6247 14.006 12.7004C14.3531 13.6797 14.6334 14.6815 14.8448 15.6988V15.6982ZM11.9993 17.8332C8.7776 17.8332 6.16602 15.2216 6.16602 11.9998C6.16602 8.77809 8.7776 6.1665 11.9993 6.1665C15.2211 6.1665 17.8327 8.77809 17.8327 11.9998C17.8327 15.2216 15.2211 17.8332 11.9993 17.8332Z" fill="#2B2B2B"/>
</g>
<defs>
<clipPath id="clip0_202_5513">
<rect width="14" height="14" fill="white" transform="translate(5 5)"/>
</clipPath>
</defs>
</svg>
