<svg width="24" height="24" viewBox="0 0 24 24" fill="none" xmlns="http://www.w3.org/2000/svg">
<circle cx="12" cy="12" r="12" fill="#FFB400"/>
<g clip-path="url(#clip0_202_5501)">
<path d="M11.9993 6.1665C13.5843 6.1665 13.782 6.17234 14.4038 6.2015C15.0251 6.23067 15.448 6.32809 15.8202 6.47275C16.2052 6.62092 16.5295 6.82159 16.8539 7.14534C17.1505 7.43694 17.38 7.78968 17.5264 8.179C17.6705 8.55059 17.7685 8.97409 17.7977 9.59534C17.8251 10.2172 17.8327 10.4149 17.8327 11.9998C17.8327 13.5848 17.8268 13.7825 17.7977 14.4043C17.7685 15.0256 17.6705 15.4485 17.5264 15.8207C17.3804 16.2102 17.1508 16.563 16.8539 16.8543C16.5622 17.1509 16.2094 17.3804 15.8202 17.5269C15.4486 17.671 15.0251 17.769 14.4038 17.7982C13.782 17.8256 13.5843 17.8332 11.9993 17.8332C10.4144 17.8332 10.2167 17.8273 9.59485 17.7982C8.9736 17.769 8.55068 17.671 8.17852 17.5269C7.78904 17.3808 7.43624 17.1512 7.14485 16.8543C6.84817 16.5628 6.61864 16.21 6.47227 15.8207C6.3276 15.4491 6.23018 15.0256 6.20102 14.4043C6.1736 13.7825 6.16602 13.5848 6.16602 11.9998C6.16602 10.4149 6.17185 10.2172 6.20102 9.59534C6.23018 8.9735 6.3276 8.55117 6.47227 8.179C6.61824 7.78944 6.84782 7.43661 7.14485 7.14534C7.43632 6.84856 7.7891 6.61901 8.17852 6.47275C8.55068 6.32809 8.97302 6.23067 9.59485 6.2015C10.2167 6.17409 10.4144 6.1665 11.9993 6.1665ZM11.9993 9.08317C11.2258 9.08317 10.4839 9.39046 9.93695 9.93744C9.38997 10.4844 9.08268 11.2263 9.08268 11.9998C9.08268 12.7734 9.38997 13.5153 9.93695 14.0622C10.4839 14.6092 11.2258 14.9165 11.9993 14.9165C12.7729 14.9165 13.5148 14.6092 14.0617 14.0622C14.6087 13.5153 14.916 12.7734 14.916 11.9998C14.916 11.2263 14.6087 10.4844 14.0617 9.93744C13.5148 9.39046 12.7729 9.08317 11.9993 9.08317ZM15.791 8.93734C15.791 8.74395 15.7142 8.55848 15.5774 8.42174C15.4407 8.28499 15.2552 8.20817 15.0618 8.20817C14.8685 8.20817 14.683 8.28499 14.5463 8.42174C14.4095 8.55848 14.3327 8.74395 14.3327 8.93734C14.3327 9.13072 14.4095 9.31619 14.5463 9.45294C14.683 9.58968 14.8685 9.6665 15.0618 9.6665C15.2552 9.6665 15.4407 9.58968 15.5774 9.45294C15.7142 9.31619 15.791 9.13072 15.791 8.93734ZM11.9993 10.2498C12.4635 10.2498 12.9086 10.4342 13.2368 10.7624C13.565 11.0906 13.7493 11.5357 13.7493 11.9998C13.7493 12.464 13.565 12.9091 13.2368 13.2373C12.9086 13.5655 12.4635 13.7498 11.9993 13.7498C11.5352 13.7498 11.0901 13.5655 10.7619 13.2373C10.4337 12.9091 10.2493 12.464 10.2493 11.9998C10.2493 11.5357 10.4337 11.0906 10.7619 10.7624C11.0901 10.4342 11.5352 10.2498 11.9993 10.2498Z" fill="#2B2B2B"/>
</g>
<defs>
<clipPath id="clip0_202_5501">
<rect width="14" height="14" fill="white" transform="translate(5 5)"/>
</clipPath>
</defs>
</svg>
