<svg width="24" height="24" viewBox="0 0 24 24" fill="none" xmlns="http://www.w3.org/2000/svg">
<circle cx="12" cy="12" r="12" fill="#FFB400"/>
<g clip-path="url(#clip0_202_5507)">
<path d="M9.04818 7.91676C9.04802 8.22618 8.92496 8.52287 8.70606 8.74155C8.48715 8.96023 8.19035 9.083 7.88093 9.08285C7.57151 9.08269 7.27482 8.95963 7.05614 8.74072C6.83746 8.52182 6.71469 8.22501 6.71484 7.9156C6.715 7.60618 6.83806 7.30949 7.05697 7.09081C7.27587 6.87213 7.57267 6.74936 7.88209 6.74951C8.19151 6.74967 8.4882 6.87273 8.70688 7.09163C8.92556 7.31053 9.04833 7.60734 9.04818 7.91676ZM9.08318 9.94676H6.74984V17.2501H9.08318V9.94676ZM12.7698 9.94676H10.4482V17.2501H12.7465V13.4176C12.7465 11.2826 15.529 11.0843 15.529 13.4176V17.2501H17.8332V12.6243C17.8332 9.0251 13.7148 9.15926 12.7465 10.9268L12.7698 9.94676Z" fill="#2B2B2B"/>
</g>
<defs>
<clipPath id="clip0_202_5507">
<rect width="14" height="14" fill="white" transform="translate(5 5)"/>
</clipPath>
</defs>
</svg>
