<svg width="24" height="24" viewBox="0 0 24 24" fill="none" xmlns="http://www.w3.org/2000/svg">
<circle cx="12" cy="12" r="12" fill="#FFB400"/>
<g clip-path="url(#clip0_202_5504)">
<path d="M17.9272 8.29953C17.4819 8.49652 17.0096 8.62589 16.526 8.68337C17.0357 8.37854 17.4172 7.89879 17.5994 7.33353C17.121 7.6182 16.5966 7.8177 16.05 7.92562C15.6829 7.53279 15.1962 7.27226 14.6658 7.18454C14.1353 7.09682 13.5907 7.18682 13.1166 7.44055C12.6425 7.69428 12.2656 8.09752 12.0443 8.58758C11.8231 9.07764 11.77 9.62707 11.8932 10.1505C10.9232 10.1018 9.97422 9.84976 9.10794 9.41059C8.24167 8.97142 7.47743 8.35498 6.86486 7.60128C6.64803 7.97371 6.53408 8.39708 6.53469 8.82803C6.53469 9.67387 6.96519 10.4211 7.61969 10.8586C7.23236 10.8464 6.85356 10.7418 6.51486 10.5535V10.5839C6.51498 11.1472 6.70991 11.6931 7.0666 12.1292C7.4233 12.5652 7.91981 12.8644 8.47194 12.9761C8.11238 13.0736 7.73537 13.0879 7.36944 13.0181C7.52512 13.503 7.82853 13.9271 8.2372 14.2309C8.64588 14.5348 9.13935 14.7032 9.64853 14.7127C9.14247 15.1101 8.56305 15.4039 7.94337 15.5773C7.3237 15.7507 6.67593 15.8002 6.03711 15.723C7.15227 16.4402 8.45042 16.8209 9.77628 16.8197C14.2639 16.8197 16.7179 13.1021 16.7179 9.87804C16.7179 9.77304 16.715 9.66687 16.7104 9.56303C17.188 9.2178 17.6003 8.79013 17.9278 8.30012L17.9272 8.29953Z" fill="#2B2B2B"/>
</g>
<defs>
<clipPath id="clip0_202_5504">
<rect width="14" height="14" fill="white" transform="translate(5 5)"/>
</clipPath>
</defs>
</svg>
