<svg width="24" height="24" viewBox="0 0 24 24" fill="none" xmlns="http://www.w3.org/2000/svg">
<circle cx="12" cy="12" r="12" fill="#FFB400"/>
<g clip-path="url(#clip0_202_5510)">
<path d="M17.5661 8.79066C17.8327 9.83016 17.8327 12.0002 17.8327 12.0002C17.8327 12.0002 17.8327 14.1702 17.5661 15.2097C17.4179 15.7842 16.9845 16.2363 16.4356 16.3892C15.4387 16.6668 11.9993 16.6668 11.9993 16.6668C11.9993 16.6668 8.56177 16.6668 7.5631 16.3892C7.01185 16.234 6.57902 15.7825 6.4326 15.2097C6.16602 14.1702 6.16602 12.0002 6.16602 12.0002C6.16602 12.0002 6.16602 9.83016 6.4326 8.79066C6.58077 8.21608 7.01418 7.764 7.5631 7.61116C8.56177 7.3335 11.9993 7.3335 11.9993 7.3335C11.9993 7.3335 15.4387 7.3335 16.4356 7.61116C16.9868 7.76633 17.4197 8.21783 17.5661 8.79066ZM10.8327 14.0418L14.3327 12.0002L10.8327 9.9585V14.0418Z" fill="#2B2B2B"/>
</g>
<defs>
<clipPath id="clip0_202_5510">
<rect width="14" height="14" fill="white" transform="translate(5 5)"/>
</clipPath>
</defs>
</svg>
